<svg width="30" height="30" viewBox="0 0 30 30" fill="none" xmlns="http://www.w3.org/2000/svg">
<path d="M2.5 8.75C2.5 7.75544 2.89509 6.80161 3.59835 6.09835C4.30161 5.39509 5.25544 5 6.25 5H25.3125C25.644 5 25.962 5.1317 26.1964 5.36612C26.4308 5.60054 26.5625 5.91848 26.5625 6.25C26.5625 6.58152 26.4308 6.89946 26.1964 7.13388C25.962 7.3683 25.644 7.5 25.3125 7.5H21.25V20.8787C21.2501 21.1792 21.3224 21.4753 21.4608 21.742C21.5992 22.0087 21.7997 22.2382 22.0454 22.4112C22.2911 22.5842 22.5747 22.6957 22.8725 22.7361C23.1702 22.7766 23.4733 22.7449 23.7562 22.6437L23.955 22.5725C24.2673 22.4611 24.611 22.4783 24.9106 22.6204C25.2102 22.7625 25.4411 23.0177 25.5525 23.33C25.6639 23.6423 25.6467 23.986 25.5046 24.2856C25.3625 24.5852 25.1073 24.8161 24.795 24.9275L24.5963 24.9988C21.7463 26.0163 18.75 23.9037 18.75 20.8787V7.5H12.4738C12.3786 9.25843 12.2285 11.0135 12.0238 12.7625C11.6288 16.1163 10.9113 20.44 9.61875 24.16C9.56491 24.3151 9.48104 24.4581 9.37193 24.5808C9.26283 24.7035 9.13062 24.8036 8.98286 24.8752C8.68444 25.0198 8.34079 25.04 8.0275 24.9312C7.71421 24.8225 7.45695 24.5938 7.31232 24.2954C7.16768 23.9969 7.14751 23.6533 7.25625 23.34C8.4625 19.8725 9.15375 15.7575 9.54 12.4713C9.73373 10.8189 9.87713 9.16106 9.97 7.5H6.25C5.91848 7.5 5.60054 7.6317 5.36612 7.86612C5.1317 8.10054 5 8.41848 5 8.75V9.375C5 9.70652 4.8683 10.0245 4.63388 10.2589C4.39946 10.4933 4.08152 10.625 3.75 10.625C3.41848 10.625 3.10054 10.4933 2.86612 10.2589C2.6317 10.0245 2.5 9.70652 2.5 9.375V8.75Z" fill="#C449C2"/>
</svg>
